HIERARCHY
ROOT hip
{
	OFFSET	0.00  0.00  0.00 
	CHANNELS 6 Xposition Yposition Zposition Xrotation Zrotation Yrotation
	JOINT abdomen
	{
		OFFSET	0.000000 1.799998 0.000000
		CHANNELS 3 Xrotation Zrotation Yrotation
		JOINT chest
		{
			OFFSET	0.000000 4.464001 -0.360000
			CHANNELS 3 Xrotation Zrotation Yrotation
			JOINT neck
			{
				OFFSET	0.000000 5.400002 -0.144000
				CHANNELS 3 Xrotation Zrotation Yrotation
				JOINT head
				{
					OFFSET	0.000000 1.655998 0.000000
					CHANNELS 3 Xrotation Zrotation Yrotation
				}
			}
			JOINT lCollar
			{
				OFFSET	1.800000 3.528000 -0.432000
				CHANNELS 3 Yrotation Zrotation Xrotation
				JOINT lShldr
				{
					OFFSET	1.728000 0.000000 0.000000
					CHANNELS 3 Zrotation Yrotation Xrotation
					JOINT lForeArm
					{
						OFFSET	5.328000 0.000000 0.000000
						CHANNELS 3 Yrotation Zrotation Xrotation
						JOINT lHand
						{
							OFFSET	4.464000 0.000000 0.000000
							CHANNELS 3 Zrotation Yrotation Xrotation
						}
					}
				}
			}
			JOINT rCollar
			{
				OFFSET	-1.872000 3.528000 -0.432000
				CHANNELS 3 Yrotation Zrotation Xrotation
				JOINT rShldr
				{
					OFFSET	-1.656000 0.000000 0.000000
					CHANNELS 3 Zrotation Yrotation Xrotation
					JOINT rForeArm
					{
						OFFSET	-5.400000 0.000000 0.000000
						CHANNELS 3 Yrotation Zrotation Xrotation
						JOINT rHand
						{
							OFFSET	-4.392000 0.000000 0.000000
							CHANNELS 3 Zrotation Yrotation Xrotation
						}
					}
				}
			}
		}
	}
	JOINT lThigh
	{
		OFFSET	2.808000 -0.864002 0.720000
		CHANNELS 3 Xrotation Zrotation Yrotation
		JOINT lShin
		{
			OFFSET	-1.080000 -10.583999 0.000000
			CHANNELS 3 Xrotation Zrotation Yrotation
			JOINT lFoot
			{
				OFFSET	0.000000 -10.152000 -0.648000
				CHANNELS 3 Xrotation Yrotation Zrotation
				End Site
				{
					OFFSET 0.000000 -1.296000 2.448000
				}
			}
		}
	}
	JOINT rThigh
	{
		OFFSET	-2.808000 -0.864002 0.720000
		CHANNELS 3 Xrotation Zrotation Yrotation
		JOINT rShin
		{
			OFFSET	1.080000 -10.583999 0.000000
			CHANNELS 3 Xrotation Zrotation Yrotation
			JOINT rFoot
			{
				OFFSET	0.000000 -10.152000 -0.648000
				CHANNELS 3 Xrotation Yrotation Zrotation
				End Site
				{
					OFFSET 0.000000 -1.296000 2.448000
				}
			}
		}
	}
}
MOTION
Frames:     17
Frame Time: 0.033333
0.000000 23.151886 0.000000 0.000000 0.000000 0.000000 0.000000 0.000000 0.000000 0.000000 0.000000 0.000000 0.000000 0.000000 0.000000 0.000000 0.000000 0.000000 0.000000 0.000000 0.000000 0.000000 0.000000 0.000000 0.000000 0.000000 0.000000 0.000000 0.000000 0.000000 9.990230 0.000000 0.000000 0.000000 0.000000 0.000000 0.000000 0.000000 0.000000 0.000000 0.000000 0.000000 0.000000 0.000000 0.000000 0.009766 0.000000 0.000000 -0.097656 0.000000 0.000000 0.000000 -0.019531 0.000000 0.009766 0.019531 -0.009766 0.166016 0.009766 0.000000 
0.000000 23.151886 0.000000 0.000000 0.000000 0.000000 -0.058594 0.000000 -0.693359 -0.058246 0.008089 -1.084350 -0.004219 -0.009544 0.131502 -0.120239 0.061089 0.077049 -10.000000 -0.096783 -0.039096 -76.735802 -0.283542 2.043020 -13.159900 0.000000 6.137710 -6.302800 19.117500 -0.057126 9.979000 0.000100 0.000000 68.171402 -0.870578 1.668900 12.417100 -0.277800 -4.873400 0.000000 0.000000 0.143916 0.000000 0.000000 0.000000 0.009766 0.000000 0.000000 -0.097656 0.000000 0.000000 0.000000 -0.019531 0.000000 0.009766 0.019531 -0.009766 0.166016 0.009766 0.000000 
0.000000 23.151886 0.000000 0.000000 0.000000 0.000000 -0.033337 0.001081 -1.462706 0.049274 0.019267 -2.169859 -0.014871 -0.033642 0.463802 -0.423984 0.215554 0.271823 -19.372391 -0.239471 -0.093775 -76.582268 -0.787394 -0.963186 -25.513721 0.000000 6.137710 -6.302800 19.172657 -0.055221 9.924151 0.003586 0.015622 68.671837 -2.027679 3.491327 13.303911 -0.539650 -9.760034 0.000000 0.000000 0.312952 0.000000 0.000000 0.000000 0.009766 0.000000 0.000000 -0.097656 0.000000 0.000000 0.000000 -0.019531 0.000000 0.009766 0.019531 -0.009766 0.166016 0.009766 0.000000 
0.000000 23.151886 0.000000 0.000000 0.000000 0.000000 0.101434 0.003471 -2.214573 0.364489 0.032909 -3.086496 -0.032559 -0.073655 1.016083 -0.928634 0.472447 0.595674 -26.425184 -0.421931 -0.160538 -76.195328 -2.056909 -4.604965 -34.896450 0.000000 6.137710 -6.302800 19.227814 -0.053317 9.817635 0.011205 0.050261 69.355705 -3.384395 5.236240 14.430109 -0.736901 -13.887532 0.000000 0.000000 0.490957 0.000000 0.000000 0.000000 0.009766 0.000000 0.000000 -0.097656 0.000000 0.000000 0.000000 -0.019531 0.000000 0.009766 0.019531 -0.009766 0.166016 0.009766 0.000000 
0.000000 23.151886 0.000000 0.000000 0.000000 0.000000 0.330221 0.006997 -2.944795 0.857781 0.048624 -3.847513 -0.056203 -0.127142 1.755136 -1.603683 0.816483 1.029254 -30.000000 -0.637345 -0.236588 -75.554955 -4.157300 -8.330982 -41.673431 0.000000 6.137710 -6.302800 19.282970 -0.051413 9.665393 0.022489 0.101586 70.182533 -4.892747 6.898414 15.709066 -0.873373 -17.301479 0.000000 0.000000 0.677239 0.000000 0.000000 0.000000 0.009766 0.000000 0.000000 -0.097656 0.000000 0.000000 0.000000 -0.019531 0.000000 0.009766 0.019531 -0.009766 0.166016 0.009766 0.000000 
0.000000 23.151886 0.000000 0.000000 0.000000 0.000000 0.637527 0.011488 -3.649211 1.499535 0.066022 -4.466163 -0.084724 -0.191663 2.647748 -2.418624 1.232375 1.553217 -30.000000 -0.878896 -0.319124 -74.702538 -6.952239 -11.804177 -46.189449 0.000000 6.137710 -6.302800 19.338127 -0.049509 9.473365 0.036970 0.167269 71.128891 -6.504755 8.472620 17.116840 -0.952881 -20.000000 0.000000 0.000000 0.871107 0.000000 0.000000 0.000000 0.009766 0.000000 0.000000 -0.097656 0.000000 0.000000 0.000000 -0.019531 0.000000 0.009766 0.019531 -0.009766 0.166016 0.009766 0.000000 
0.000000 23.151886 0.000000 0.000000 0.000000 0.000000 1.007854 0.016771 -4.323656 2.260132 0.084711 -4.955696 -0.117044 -0.264777 3.660708 -3.342949 1.704838 2.148216 -30.000000 -1.139765 -0.405348 -73.679466 -10.305399 -14.749437 -48.768738 0.000000 6.137710 -6.302800 19.393284 -0.047605 9.247493 0.054177 0.244979 72.171371 -8.172436 9.953632 18.629494 -0.979244 -20.000000 0.000000 0.000000 1.071869 0.000000 0.000000 0.000000 0.009766 0.000000 0.000000 -0.097656 0.000000 0.000000 0.000000 -0.019531 0.000000 0.009766 0.019531 -0.009766 0.166016 0.009766 0.000000 
0.000000 23.151886 0.000000 0.000000 0.000000 0.000000 1.425704 0.022677 -4.963966 3.109956 0.104301 -5.329366 -0.152083 -0.344043 4.760807 -4.346152 2.218585 2.794903 -30.000000 -1.413134 -0.492460 -72.527130 -14.080451 -17.145571 -49.714878 0.000000 6.137710 -6.302800 19.448441 -0.045700 8.993719 0.073644 0.332386 73.286575 -9.847815 11.336227 20.223091 -0.956279 -20.000000 0.000000 0.000000 1.278836 0.000000 0.000000 0.000000 0.009766 0.000000 0.000000 -0.097656 0.000000 0.000000 0.000000 -0.019531 0.000000 0.009766 0.019531 -0.009766 0.166016 0.009766 0.000000 
0.000000 23.151886 0.000000 0.000000 0.000000 0.000000 1.875581 0.029031 -5.565980 4.019391 0.124400 -5.600425 -0.188763 -0.427021 5.914833 -5.397726 2.758330 3.473932 -30.000000 -1.692186 -0.577663 -71.286919 -18.141069 -19.033920 -49.310635 0.000000 6.137710 -6.302800 19.503597 -0.043796 8.717983 0.094901 0.427160 74.451111 -11.482908 12.615173 21.873695 -0.887803 -20.000000 0.000000 0.000000 1.491314 0.000000 0.000000 0.000000 0.009766 0.000000 0.000000 -0.097656 0.000000 0.000000 0.000000 -0.019531 0.000000 0.009766 0.019531 -0.009766 0.166016 0.009766 0.000000 
0.000000 23.151886 0.000000 0.000000 0.000000 0.000000 2.341987 0.035664 -6.125535 4.958820 0.144617 -5.782126 -0.226005 -0.511269 7.089576 -6.467163 3.308788 4.165956 -30.000000 -1.970103 -0.658157 -70.000221 -22.350925 -20.454485 -47.817902 0.000000 6.137710 -6.302800 19.558754 -0.041892 8.426228 0.117479 0.526972 75.641525 -13.029737 13.785246 23.557358 -0.777635 -20.000000 0.000000 0.000000 1.708613 0.000000 0.000000 0.000000 0.009766 0.000000 0.000000 -0.097656 0.000000 0.000000 0.000000 -0.019531 0.000000 0.009766 0.019531 -0.009766 0.166016 0.009766 0.000000 
0.000000 23.151886 0.000000 0.000000 0.000000 0.000000 2.809426 0.042403 -6.638466 5.898626 0.164561 -5.887722 -0.262729 -0.594347 8.251825 -7.523958 3.854672 4.851628 -30.000000 -2.240067 -0.731144 -68.708427 -26.573690 -21.445932 -45.477745 0.000000 6.137710 -6.302800 19.613911 -0.039988 8.124393 0.140911 0.629491 76.834404 -14.440322 14.841222 25.250139 -0.629591 -20.000000 0.000000 0.000000 1.930042 0.000000 0.000000 0.000000 0.009766 0.000000 0.000000 -0.097656 0.000000 0.000000 0.000000 -0.019531 0.000000 0.009766 0.019531 -0.009766 0.166016 0.009766 0.000000 
0.000000 23.151886 0.000000 0.000000 0.000000 0.000000 3.262398 0.049076 -7.100611 6.809192 0.183841 -5.930463 -0.297857 -0.673813 9.368371 -8.537602 4.380696 5.511602 -27.712036 -2.495261 -0.793824 -67.452919 -30.673037 -22.045576 -42.510597 0.000000 6.137710 -6.302800 19.669065 -0.038084 7.818418 0.164727 0.732388 78.006348 -15.666678 15.777869 26.928104 -0.447490 -20.000000 0.000000 0.000000 2.154909 0.000000 0.000000 0.000000 0.009766 0.000000 0.000000 -0.097656 0.000000 0.000000 0.000000 -0.019531 0.000000 0.009766 0.019531 -0.009766 0.166016 0.009766 0.000000 
0.000000 23.151886 0.000000 0.000000 0.000000 0.000000 3.685408 0.055513 -7.507805 7.660901 0.202065 -5.923602 -0.330310 -0.747228 10.405999 -9.477589 4.871573 6.126529 -24.527220 -2.728865 -0.843398 -66.275101 -34.512638 -22.289368 -39.116848 0.000000 6.137710 -6.302800 19.724220 -0.036180 7.514246 0.188459 0.833332 79.133942 -16.660831 16.589964 28.567310 -0.235148 -20.000000 0.000000 0.000000 2.382524 0.000000 0.000000 0.000000 0.009766 0.000000 0.000000 -0.097656 0.000000 0.000000 0.000000 -0.019531 0.000000 0.009766 0.019531 -0.009766 0.166016 0.009766 0.000000 
0.000000 23.151886 0.000000 0.000000 0.000000 0.000000 4.062956 0.061540 -7.855886 8.424136 0.218844 -5.880390 -0.359009 -0.812150 11.331499 -10.313410 5.312017 6.677063 -21.386971 -2.934062 -0.877068 -65.216370 -37.956169 -22.211920 -35.478249 0.000000 6.137710 -6.302800 19.779377 -0.034275 7.217820 0.211638 0.929994 80.193779 -17.374800 17.272282 30.143820 0.003616 -20.000000 0.000000 0.000000 2.612194 0.000000 0.000000 0.000000 0.009766 0.000000 0.000000 -0.097656 0.000000 0.000000 0.000000 -0.019531 0.000000 0.009766 0.019531 -0.009766 0.166016 0.009766 0.000000 
0.000000 23.151886 0.000000 0.000000 0.000000 0.000000 4.379545 0.066986 -8.140687 9.069281 0.233784 -5.814079 -0.382874 -0.866138 12.111660 -11.014558 5.686741 7.143855 -18.527704 -3.104034 -0.892034 -64.318108 -40.867302 -21.846481 -31.761112 0.000000 6.137710 -6.302800 19.834534 -0.032371 6.935078 0.233796 1.020043 81.162468 -17.760601 17.819593 31.633699 0.264986 -20.000000 0.000000 0.000000 2.843229 0.000000 0.000000 0.000000 0.009766 0.000000 0.000000 -0.097656 0.000000 0.000000 0.000000 -0.019531 0.000000 0.009766 0.019531 -0.009766 0.166016 0.009766 0.000000 
0.000000 23.151886 0.000000 0.000000 0.000000 0.000000 4.619678 0.071681 -8.358047 9.566717 0.246497 -5.737923 -0.400827 -0.906752 12.713270 -11.550527 5.980460 7.507560 -16.185841 -3.231963 -0.885497 -63.621700 -43.109703 -21.224955 -28.124697 0.000000 6.137710 -6.302800 19.889688 -0.030467 6.671962 0.254463 1.101151 82.016586 -17.770254 18.226671 33.013012 0.545144 -20.000000 0.000000 0.000000 3.074936 0.000000 0.000000 0.000000 0.009766 0.000000 0.000000 -0.097656 0.000000 0.000000 0.000000 -0.019531 0.000000 0.009766 0.019531 -0.009766 0.166016 0.009766 0.000000 
0.000000 23.151886 0.000000 0.000000 0.000000 0.000000 4.767859 0.075451 -8.503806 9.886828 0.256590 -5.665173 -0.411790 -0.931550 13.103119 -11.890809 6.177888 7.748830 -14.597801 -3.311030 -0.854659 -63.168537 -44.547043 -20.377874 -24.748760 0.000000 6.137710 -6.302800 19.944843 -0.028563 6.434414 0.273172 1.170986 82.732712 -17.355780 18.488291 34.257813 0.840271 -19.204668 0.000000 0.000000 3.306625 0.000000 0.000000 0.000000 0.009766 0.000000 0.000000 -0.097656 0.000000 0.000000 0.000000 -0.019531 0.000000 0.009766 0.019531 -0.009766 0.166016 0.009766 0.000000 
